<svg width="24" height="24" viewBox="0 0 24 24" fill="none" xmlns="http://www.w3.org/2000/svg">
<path d="M7.78305 11.6666C7.78305 9.51895 9.52466 7.77745 11.6736 7.77745C13.8226 7.77745 15.5652 9.51895 15.5652 11.6666C15.5652 13.8143 13.8226 15.5558 11.6736 15.5558C9.52466 15.5558 7.78305 13.8143 7.78305 11.6666ZM5.67936 11.6666C5.67936 14.9753 8.36299 17.6573 11.6736 17.6573C14.9843 17.6573 17.6679 14.9753 17.6679 11.6666C17.6679 8.35798 14.9843 5.67596 11.6736 5.67596C8.36299 5.67596 5.67936 8.35798 5.67936 11.6666ZM16.5044 5.43843C16.5043 5.71532 16.5863 5.98603 16.7401 6.21632C16.894 6.44661 17.1127 6.62613 17.3686 6.7322C17.6245 6.83826 17.9062 6.8661 18.1779 6.81219C18.4497 6.75828 18.6994 6.62504 18.8954 6.42933C19.0913 6.23361 19.2249 5.98421 19.279 5.71266C19.3332 5.44111 19.3055 5.15961 19.1996 4.90375C19.0937 4.64789 18.9142 4.42917 18.6839 4.27524C18.4536 4.12132 18.1828 4.0391 17.9058 4.03899H17.9052C17.5338 4.03916 17.1777 4.18664 16.9151 4.44903C16.6524 4.71142 16.5047 5.06727 16.5044 5.43843ZM6.95749 21.163C5.81935 21.1112 5.20074 20.9217 4.78965 20.7617C4.24463 20.5496 3.85575 20.2971 3.4469 19.889C3.03804 19.4809 2.78496 19.0927 2.57371 18.548C2.41345 18.1373 2.22387 17.5189 2.17214 16.3814C2.11554 15.1517 2.10424 14.7823 2.10424 11.6667C2.10424 8.55118 2.11648 8.18279 2.17214 6.95201C2.22397 5.81456 2.41495 5.19735 2.57371 4.78547C2.78589 4.24078 3.0386 3.85214 3.4469 3.44352C3.85519 3.03491 4.24369 2.78198 4.78965 2.57086C5.20056 2.4107 5.81935 2.22123 6.95749 2.16953C8.18798 2.11297 8.55761 2.10167 11.6736 2.10167C14.7897 2.10167 15.1597 2.1139 16.3912 2.16953C17.5293 2.22133 18.1469 2.41219 18.559 2.57086C19.104 2.78198 19.4929 3.03547 19.9018 3.44352C20.3106 3.85158 20.5628 4.24078 20.775 4.78547C20.9352 5.19613 21.1248 5.81456 21.1765 6.95201C21.2331 8.18279 21.2444 8.55118 21.2444 11.6667C21.2444 14.7823 21.2331 15.1507 21.1765 16.3814C21.1247 17.5189 20.9342 18.1371 20.775 18.548C20.5628 19.0927 20.3101 19.4813 19.9018 19.889C19.4935 20.2967 19.104 20.5496 18.559 20.7617C18.1481 20.9218 17.5293 21.1113 16.3912 21.163C15.1607 21.2196 14.7911 21.2308 11.6736 21.2308C8.55621 21.2308 8.18761 21.2196 6.95749 21.163ZM6.86083 0.0706531C5.6181 0.127213 4.76891 0.324146 4.02731 0.612545C3.25928 0.910371 2.6091 1.30993 1.9594 1.95822C1.30969 2.60651 0.910917 3.25732 0.612912 4.0249C0.32434 4.76652 0.127289 5.61473 0.0706955 6.85671C0.0131679 8.10066 0 8.49835 0 11.6666C0 14.8349 0.0131679 15.2326 0.0706955 16.4766C0.127289 17.7186 0.32434 18.5667 0.612912 19.3084C0.910917 20.0755 1.30978 20.727 1.9594 21.375C2.60901 22.0231 3.25928 22.4221 4.02731 22.7207C4.77031 23.0091 5.6181 23.2061 6.86083 23.2626C8.10617 23.3192 8.50345 23.3333 11.6736 23.3333C14.8438 23.3333 15.2417 23.3201 16.4864 23.2626C17.7293 23.2061 18.5779 23.0091 19.32 22.7207C20.0875 22.4221 20.7382 22.0233 21.3879 21.375C22.0376 20.7268 22.4355 20.0755 22.7344 19.3084C23.0229 18.5667 23.2209 17.7185 23.2766 16.4766C23.3332 15.2317 23.3463 14.8349 23.3463 11.6666C23.3463 8.49835 23.3332 8.10066 23.2766 6.85671C23.22 5.61464 23.0229 4.76605 22.7344 4.0249C22.4355 3.25779 22.0366 2.60754 21.3879 1.95822C20.7392 1.3089 20.0875 0.910371 19.3209 0.612545C18.5779 0.324146 17.7292 0.12628 16.4874 0.0706531C15.2427 0.0140933 14.8448 0 11.6746 0C8.50438 0 8.10617 0.01316 6.86083 0.0706531Z" fill="#CE7D63"/>
</svg>
