<svg width="26" height="21" viewBox="0 0 26 21" fill="none" xmlns="http://www.w3.org/2000/svg">
<path d="M25.3618 2.52266C24.5377 2.8773 23.6714 3.12426 22.7842 3.25742C23.199 3.18631 23.8093 2.4397 24.0522 2.1375C24.4213 1.68166 24.7026 1.16128 24.8818 0.602801C24.8818 0.561322 24.9233 0.502068 24.8818 0.47244C24.8609 0.46103 24.8375 0.455051 24.8137 0.455051C24.7898 0.455051 24.7664 0.46103 24.7455 0.47244C23.7821 0.994133 22.7569 1.3923 21.6939 1.65754C21.6568 1.66885 21.6174 1.66987 21.5798 1.66048C21.5422 1.65108 21.5079 1.63163 21.4806 1.60421C21.3978 1.50568 21.3088 1.41265 21.2139 1.32571C20.7804 0.937264 20.2885 0.619338 19.7563 0.383558C19.0378 0.0888106 18.2618 -0.0388379 17.4868 0.0102523C16.7348 0.0577437 16.0006 0.259441 15.3299 0.602801C14.6694 0.964802 14.089 1.45659 13.6234 2.04862C13.1336 2.65797 12.7801 3.36513 12.5864 4.12254C12.4268 4.84299 12.4086 5.58761 12.5331 6.31497C12.5331 6.4394 12.5331 6.45718 12.4264 6.4394C8.20156 5.81723 4.73516 4.31808 1.90278 1.10054C1.77834 0.95833 1.71316 0.95833 1.61243 1.10054C0.379927 2.97299 0.978401 5.93574 2.51903 7.39933C2.72642 7.59487 2.93974 7.78449 3.1649 7.96225C2.45854 7.91211 1.76942 7.72068 1.13839 7.39933C1.01988 7.3223 0.954698 7.36378 0.948773 7.50599C0.931976 7.70315 0.931976 7.90138 0.948773 8.09854C1.07241 9.04341 1.44478 9.9385 2.0278 10.6923C2.61083 11.446 3.38358 12.0314 4.26704 12.3886C4.48241 12.4808 4.70682 12.5503 4.93662 12.596C4.2827 12.7247 3.61202 12.7447 2.95159 12.6552C2.80937 12.6256 2.75605 12.7026 2.80937 12.8389C3.68042 15.2091 5.57065 15.932 6.95721 16.335C7.14683 16.3646 7.33644 16.3646 7.54976 16.412C7.54976 16.412 7.54976 16.412 7.51421 16.4475C7.10535 17.1942 5.45214 17.6978 4.69368 17.9585C3.30929 18.4558 1.83328 18.6459 0.368076 18.5155C0.136982 18.48 0.0836524 18.4859 0.0243975 18.5155C-0.0348573 18.5452 0.0243975 18.6103 0.0895779 18.6696C0.385852 18.8651 0.682126 19.037 0.990251 19.2029C1.90754 19.7032 2.87731 20.1007 3.88189 20.388C9.08446 21.822 14.9388 20.7672 18.8437 16.886C21.9131 13.8403 22.9916 9.63916 22.9916 5.43207C22.9916 5.27208 23.1871 5.17727 23.2997 5.09432C24.0762 4.48926 24.7609 3.77471 25.3321 2.97299C25.4311 2.85349 25.4818 2.70133 25.4743 2.54636C25.4743 2.45748 25.4743 2.47525 25.3618 2.52266Z" fill="#CE7D63"/>
</svg>
