<svg width="34" height="34" viewBox="0 0 34 34" fill="none" xmlns="http://www.w3.org/2000/svg">
<path d="M13.9834 16.1623C13.9834 16.1623 16.9475 15.937 16.9475 12.3903C16.9475 8.84657 14.9372 7.09965 11.8644 7.09965L1.33789 7.08301V26.6672H12.1092C12.1092 26.6672 17.4949 26.8376 17.4949 20.792C17.4949 20.792 17.8905 16.1623 13.9834 16.1623ZM5.25474 10.0206H10.6404C10.6404 10.0206 12.4833 10.051 12.4833 12.4403C12.4833 14.9167 10.6404 14.9167 10.6404 14.9167H5.25474V10.0206ZM11.13 23.7296H5.25474V17.8543H11.13C11.13 17.8543 14.0676 17.8847 14.0676 20.792C14.0676 23.6993 11.553 23.7296 11.13 23.7296Z" fill="#D48E77"/>
<path d="M25.8189 11.9795C18.4621 11.9795 18.4748 19.3236 18.4748 19.3236C18.4748 19.3236 17.9852 26.6677 25.8189 26.6677C25.8189 26.6677 32.6734 26.6677 32.6734 20.7924H28.7565C28.7565 20.7924 28.7565 23.73 25.8189 23.73C25.8189 23.73 22.8812 23.73 22.8812 19.8132C22.8812 19.8132 30.7149 19.8132 32.6734 19.8132C32.6734 17.8548 32.6734 11.9795 25.8189 11.9795ZM22.8812 17.8548C22.8812 17.8548 22.8166 14.9171 25.8189 14.9171C28.8202 14.9171 28.7565 17.8548 28.7565 17.8548H22.8812Z" fill="#D48E77"/>
<path d="M29.7351 9.04199H21.9014V11.0004H29.7351V9.04199Z" fill="#D48E77"/>
</svg>
