<svg width="66" height="66" viewBox="0 0 66 66" fill="none" xmlns="http://www.w3.org/2000/svg">
<rect x="0.5" y="0.5" width="65" height="65" rx="11.5" fill="#1F1F1F"/>
<rect x="0.5" y="0.5" width="65" height="65" rx="11.5" stroke="#333333"/>
<path d="M18.833 25.2085C18.833 21.6877 21.6872 18.8335 25.208 18.8335C28.7288 18.8335 31.583 21.6877 31.583 25.2085V29.4585C31.583 29.9525 31.583 30.1996 31.5287 30.4022C31.3813 30.9522 30.9517 31.3818 30.4018 31.5292C30.1991 31.5835 29.9521 31.5835 29.458 31.5835H25.208C21.6872 31.5835 18.833 28.7293 18.833 25.2085Z" fill="#CE7D63"/>
<path d="M34.4163 36.5418C34.4163 36.0478 34.4163 35.8008 34.4706 35.5981C34.618 35.0481 35.0476 34.6185 35.5976 34.4711C35.8003 34.4168 36.0473 34.4168 36.5413 34.4168H40.7913C44.3122 34.4168 47.1663 37.271 47.1663 40.7918C47.1663 44.3126 44.3122 47.1668 40.7913 47.1668C37.2705 47.1668 34.4163 44.3126 34.4163 40.7918V36.5418Z" fill="#CE7D63"/>
<path d="M18.833 40.7918C18.833 37.271 21.6872 34.4168 25.208 34.4168H29.033C29.9256 34.4168 30.3719 34.4168 30.7128 34.5905C31.0127 34.7433 31.2565 34.9872 31.4093 35.287C31.583 35.628 31.583 36.0742 31.583 36.9668V40.7918C31.583 44.3126 28.7288 47.1668 25.208 47.1668C21.6872 47.1668 18.833 44.3126 18.833 40.7918Z" fill="#CE7D63"/>
<path d="M34.4163 25.2085C34.4163 21.6877 37.2705 18.8335 40.7913 18.8335C44.3122 18.8335 47.1663 21.6877 47.1663 25.2085C47.1663 28.7293 44.3122 31.5835 40.7913 31.5835H36.2378C36.0263 31.5835 35.9206 31.5835 35.8316 31.5735C35.0928 31.4902 34.5096 30.9071 34.4264 30.1682C34.4163 30.0793 34.4163 29.9735 34.4163 29.7621V25.2085Z" fill="#CE7D63"/>
</svg>
