<svg width="52" height="52" viewBox="0 0 52 52" fill="none" xmlns="http://www.w3.org/2000/svg">
<rect x="0.5" y="0.5" width="51" height="51" rx="9.5" fill="#1F1F1F"/>
<rect x="0.5" y="0.5" width="51" height="51" rx="9.5" stroke="#333333"/>
<path d="M21 18.8294C21 20.3771 22.7259 22.0076 24.1497 23.0893C24.9489 23.6964 25.3484 24 26 24C26.6516 24 27.0512 23.6964 27.8503 23.0893C29.2741 22.0076 31 20.3772 31 18.8293C31 16.0392 28.2499 14.9975 26 17.1528C23.7501 14.9975 21 16.0392 21 18.8294Z" fill="#CE7D63"/>
<path d="M20.2599 35.3884H20C19.0572 35.3884 18.5858 35.3884 18.2929 35.0955C18 34.8026 18 34.3312 18 33.3884V32.2764C18 31.7579 18 31.4987 18.1332 31.2672C18.2664 31.0356 18.4673 30.9188 18.8691 30.6851C21.5146 29.1464 25.2715 28.2803 27.7791 29.7759C27.9475 29.8764 28.0991 29.9977 28.2285 30.1431C28.7866 30.77 28.746 31.7161 28.1028 32.2775C27.9669 32.396 27.8222 32.486 27.6764 32.5172C27.7962 32.5033 27.911 32.4874 28.0206 32.4699C28.932 32.3245 29.697 31.8375 30.3974 31.3084L32.2046 29.9433C32.8417 29.462 33.7873 29.4619 34.4245 29.943C34.9982 30.3762 35.1736 31.0894 34.8109 31.6707C34.388 32.3487 33.7921 33.216 33.2199 33.7459C32.6469 34.2766 31.7939 34.7504 31.0975 35.0865C30.326 35.4589 29.4738 35.6734 28.6069 35.8138C26.8488 36.0983 25.0166 36.0549 23.2763 35.6964C22.2925 35.4937 21.2708 35.3884 20.2599 35.3884Z" fill="#CE7D63"/>
</svg>
