<svg width="52" height="52" viewBox="0 0 52 52" fill="none" xmlns="http://www.w3.org/2000/svg">
<rect x="0.5" y="0.5" width="51" height="51" rx="9.5" fill="#1F1F1F"/>
<rect x="0.5" y="0.5" width="51" height="51" rx="9.5" stroke="#333333"/>
<path fill-rule="evenodd" clip-rule="evenodd" d="M36 26V33.2058C36 34.4896 34.649 35.3245 33.5008 34.7504C32.5727 34.2864 31.4672 34.3552 30.6039 34.9308C29.6326 35.5782 28.3674 35.5782 27.3961 34.9308L27.0435 34.6957C26.4116 34.2744 25.5884 34.2744 24.9565 34.6957L24.6039 34.9308C23.6326 35.5782 22.3674 35.5782 21.3961 34.9308C20.5328 34.3552 19.4273 34.2864 18.4992 34.7504C17.351 35.3245 16 34.4896 16 33.2058V26C16 20.4772 20.4772 16 26 16C31.5228 16 36 20.4772 36 26ZM23.4466 28.3975C23.1138 28.1508 22.6441 28.2206 22.3975 28.5534C22.1508 28.8862 22.2206 29.3559 22.5534 29.6025C23.5258 30.3233 24.715 30.75 26 30.75C27.285 30.75 28.4742 30.3233 29.4466 29.6025C29.7794 29.3559 29.8492 28.8862 29.6025 28.5534C29.3559 28.2206 28.8862 28.1508 28.5534 28.3975C27.825 28.9373 26.9459 29.25 26 29.25C25.0541 29.25 24.175 28.9373 23.4466 28.3975ZM30 23.5C30 24.3284 29.5523 25 29 25C28.4477 25 28 24.3284 28 23.5C28 22.6716 28.4477 22 29 22C29.5523 22 30 22.6716 30 23.5ZM23 25C23.5523 25 24 24.3284 24 23.5C24 22.6716 23.5523 22 23 22C22.4477 22 22 22.6716 22 23.5C22 24.3284 22.4477 25 23 25Z" fill="#CE7D63"/>
</svg>
