<svg width="66" height="66" viewBox="0 0 66 66" fill="none" xmlns="http://www.w3.org/2000/svg">
<rect x="0.5" y="0.5" width="65" height="65" rx="11.5" fill="#1F1F1F"/>
<rect x="0.5" y="0.5" width="65" height="65" rx="11.5" stroke="#333333"/>
<path fill-rule="evenodd" clip-rule="evenodd" d="M23.3267 20.493C21.667 22.1527 21.667 24.824 21.667 30.1666V35.8333C21.667 41.1758 21.667 43.8471 23.3267 45.5069C24.9864 47.1666 27.6577 47.1666 33.0003 47.1666C38.3429 47.1666 41.0142 47.1666 42.6739 45.5069C44.3337 43.8471 44.3337 41.1758 44.3337 35.8333V30.1666C44.3337 24.824 44.3337 22.1527 42.6739 20.493C41.0142 18.8333 38.3429 18.8333 33.0003 18.8333C27.6577 18.8333 24.9864 18.8333 23.3267 20.493ZM28.7503 22.0208C28.1635 22.0208 27.6878 22.4964 27.6878 23.0833C27.6878 23.6701 28.1635 24.1458 28.7503 24.1458H37.2503C37.8371 24.1458 38.3128 23.6701 38.3128 23.0833C38.3128 22.4964 37.8371 22.0208 37.2503 22.0208H28.7503ZM33.0003 42.9166C34.5651 42.9166 35.8337 41.6481 35.8337 40.0833C35.8337 38.5184 34.5651 37.2499 33.0003 37.2499C31.4355 37.2499 30.167 38.5184 30.167 40.0833C30.167 41.6481 31.4355 42.9166 33.0003 42.9166Z" fill="#CE7D63"/>
</svg>
