<svg width="258" height="40" viewBox="0 0 258 40" fill="none" xmlns="http://www.w3.org/2000/svg">
<rect width="40" height="40" rx="20" fill="white"/>
<path fill-rule="evenodd" clip-rule="evenodd" d="M16.875 13.125L26.25 13.125C26.4158 13.125 26.5747 13.1908 26.6919 13.3081C26.8092 13.4253 26.875 13.5842 26.875 13.75V23.125C26.875 23.4702 26.5952 23.75 26.25 23.75C25.9048 23.75 25.625 23.4702 25.625 23.125V15.2589L14.1919 26.6919C13.9479 26.936 13.5521 26.936 13.3081 26.6919C13.064 26.4479 13.064 26.0521 13.3081 25.8081L24.7411 14.375L16.875 14.375C16.5298 14.375 16.25 14.0952 16.25 13.75C16.25 13.4048 16.5298 13.125 16.875 13.125Z" fill="#0F0F0F"/>
<path d="M56.7578 20.9688C56.7526 21.375 56.7161 21.7865 56.6484 22.2031C56.5859 22.6146 56.487 23.013 56.3516 23.3984C56.2161 23.7839 56.0417 24.1432 55.8281 24.4766C55.6198 24.8099 55.3698 25.1016 55.0781 25.3516C54.7865 25.6016 54.4505 25.7995 54.0703 25.9453C53.6953 26.0859 53.2734 26.1562 52.8047 26.1562C52.3359 26.1562 51.9115 26.0859 51.5312 25.9453C51.1562 25.7995 50.8229 25.6016 50.5312 25.3516C50.2396 25.1016 49.987 24.8099 49.7734 24.4766C49.5599 24.138 49.3854 23.776 49.25 23.3906C49.1094 23.0052 49.0052 22.6068 48.9375 22.1953C48.8698 21.7839 48.8333 21.375 48.8281 20.9688V19.6719C48.8333 19.2656 48.8672 18.8568 48.9297 18.4453C48.9974 18.0286 49.1016 17.6276 49.2422 17.2422C49.3776 16.8568 49.5495 16.4974 49.7578 16.1641C49.9714 15.8255 50.224 15.5286 50.5156 15.2734C50.8073 15.0234 51.1406 14.8281 51.5156 14.6875C51.8958 14.5417 52.3203 14.4688 52.7891 14.4688C53.2578 14.4688 53.6823 14.5417 54.0625 14.6875C54.4427 14.8281 54.7786 15.0234 55.0703 15.2734C55.362 15.5234 55.612 15.8177 55.8203 16.1562C56.0339 16.4896 56.2109 16.849 56.3516 17.2344C56.487 17.6198 56.5859 18.0208 56.6484 18.4375C56.7161 18.8542 56.7526 19.2656 56.7578 19.6719V20.9688ZM55.3281 19.6562C55.3229 19.3854 55.3047 19.1042 55.2734 18.8125C55.2422 18.5156 55.1901 18.2214 55.1172 17.9297C55.0391 17.6432 54.9375 17.3698 54.8125 17.1094C54.6875 16.8438 54.5312 16.6094 54.3438 16.4062C54.1562 16.2083 53.9349 16.0521 53.6797 15.9375C53.4245 15.8177 53.1276 15.7578 52.7891 15.7578C52.4557 15.7578 52.1615 15.8177 51.9062 15.9375C51.651 16.0573 51.4297 16.2161 51.2422 16.4141C51.0547 16.6172 50.8984 16.8516 50.7734 17.1172C50.6484 17.3776 50.5495 17.651 50.4766 17.9375C50.3984 18.2292 50.3411 18.5234 50.3047 18.8203C50.2734 19.112 50.2552 19.3906 50.25 19.6562V20.9688C50.2552 21.2344 50.2734 21.5156 50.3047 21.8125C50.3411 22.1094 50.3984 22.401 50.4766 22.6875C50.5547 22.9792 50.6562 23.2578 50.7812 23.5234C50.9062 23.7891 51.0625 24.0208 51.25 24.2188C51.4375 24.4219 51.6589 24.5833 51.9141 24.7031C52.1693 24.8229 52.4661 24.8828 52.8047 24.8828C53.1432 24.8828 53.4401 24.8229 53.6953 24.7031C53.9557 24.5833 54.1797 24.4219 54.3672 24.2188C54.5495 24.0208 54.7005 23.7917 54.8203 23.5312C54.9453 23.2656 55.0469 22.987 55.125 22.6953C55.1979 22.4089 55.2474 22.1172 55.2734 21.8203C55.3047 21.5234 55.3229 21.2396 55.3281 20.9688V19.6562ZM60.5469 21.4375V26H59.1016V14.625H62.7891C63.2995 14.6354 63.7812 14.7161 64.2344 14.8672C64.6927 15.0182 65.0938 15.237 65.4375 15.5234C65.7812 15.8099 66.0521 16.1641 66.25 16.5859C66.4531 17.0078 66.5547 17.4922 66.5547 18.0391C66.5547 18.5859 66.4531 19.0703 66.25 19.4922C66.0521 19.9089 65.7812 20.2604 65.4375 20.5469C65.0938 20.8333 64.6927 21.0521 64.2344 21.2031C63.7812 21.3542 63.2995 21.4323 62.7891 21.4375H60.5469ZM60.5469 20.25H62.7891C63.1224 20.2448 63.4297 20.1927 63.7109 20.0938C63.9922 19.9896 64.237 19.8438 64.4453 19.6562C64.6536 19.4688 64.8151 19.2422 64.9297 18.9766C65.0495 18.7057 65.1094 18.3984 65.1094 18.0547C65.1094 17.7109 65.0495 17.401 64.9297 17.125C64.8151 16.849 64.6562 16.6146 64.4531 16.4219C64.2448 16.2292 63.9974 16.0807 63.7109 15.9766C63.4297 15.8724 63.1224 15.8177 62.7891 15.8125H60.5469V20.25ZM74.8359 20.7422H70.0859V24.7734H75.625V26H68.6406V14.625H75.5547V15.8594H70.0859V19.5156H74.8359V20.7422ZM85.3125 26H83.8438L79.4297 17.5L79.4062 26H77.9453V14.625H79.4141L83.8281 23.1094L83.8516 14.625H85.3125V26ZM98.9844 21.4375V26H97.5391V14.625H101.227C101.737 14.6354 102.219 14.7161 102.672 14.8672C103.13 15.0182 103.531 15.237 103.875 15.5234C104.219 15.8099 104.49 16.1641 104.688 16.5859C104.891 17.0078 104.992 17.4922 104.992 18.0391C104.992 18.5859 104.891 19.0703 104.688 19.4922C104.49 19.9089 104.219 20.2604 103.875 20.5469C103.531 20.8333 103.13 21.0521 102.672 21.2031C102.219 21.3542 101.737 21.4323 101.227 21.4375H98.9844ZM98.9844 20.25H101.227C101.56 20.2448 101.867 20.1927 102.148 20.0938C102.43 19.9896 102.674 19.8438 102.883 19.6562C103.091 19.4688 103.253 19.2422 103.367 18.9766C103.487 18.7057 103.547 18.3984 103.547 18.0547C103.547 17.7109 103.487 17.401 103.367 17.125C103.253 16.849 103.094 16.6146 102.891 16.4219C102.682 16.2292 102.435 16.0807 102.148 15.9766C101.867 15.8724 101.56 15.8177 101.227 15.8125H98.9844V20.25ZM110.781 21.3594H108.508V26H107.07V14.625H110.406C110.938 14.6354 111.438 14.7109 111.906 14.8516C112.375 14.9922 112.786 15.2031 113.141 15.4844C113.49 15.7656 113.763 16.1198 113.961 16.5469C114.164 16.9688 114.266 17.4661 114.266 18.0391C114.266 18.4089 114.211 18.7474 114.102 19.0547C113.997 19.362 113.852 19.6406 113.664 19.8906C113.477 20.1406 113.253 20.362 112.992 20.5547C112.732 20.7474 112.445 20.9115 112.133 21.0469L114.547 25.9062L114.539 26H113.016L110.781 21.3594ZM108.508 20.1719H110.445C110.768 20.1667 111.073 20.1172 111.359 20.0234C111.646 19.9245 111.898 19.7839 112.117 19.6016C112.331 19.4193 112.5 19.1979 112.625 18.9375C112.75 18.6719 112.812 18.3672 112.812 18.0234C112.812 17.6589 112.753 17.3411 112.633 17.0703C112.513 16.7943 112.346 16.5625 112.133 16.375C111.919 16.1927 111.664 16.0547 111.367 15.9609C111.076 15.8672 110.755 15.8177 110.406 15.8125H108.508V20.1719ZM124.023 20.9688C124.018 21.375 123.982 21.7865 123.914 22.2031C123.852 22.6146 123.753 23.013 123.617 23.3984C123.482 23.7839 123.307 24.1432 123.094 24.4766C122.885 24.8099 122.635 25.1016 122.344 25.3516C122.052 25.6016 121.716 25.7995 121.336 25.9453C120.961 26.0859 120.539 26.1562 120.07 26.1562C119.602 26.1562 119.177 26.0859 118.797 25.9453C118.422 25.7995 118.089 25.6016 117.797 25.3516C117.505 25.1016 117.253 24.8099 117.039 24.4766C116.826 24.138 116.651 23.776 116.516 23.3906C116.375 23.0052 116.271 22.6068 116.203 22.1953C116.135 21.7839 116.099 21.375 116.094 20.9688V19.6719C116.099 19.2656 116.133 18.8568 116.195 18.4453C116.263 18.0286 116.367 17.6276 116.508 17.2422C116.643 16.8568 116.815 16.4974 117.023 16.1641C117.237 15.8255 117.49 15.5286 117.781 15.2734C118.073 15.0234 118.406 14.8281 118.781 14.6875C119.161 14.5417 119.586 14.4688 120.055 14.4688C120.523 14.4688 120.948 14.5417 121.328 14.6875C121.708 14.8281 122.044 15.0234 122.336 15.2734C122.628 15.5234 122.878 15.8177 123.086 16.1562C123.299 16.4896 123.477 16.849 123.617 17.2344C123.753 17.6198 123.852 18.0208 123.914 18.4375C123.982 18.8542 124.018 19.2656 124.023 19.6719V20.9688ZM122.594 19.6562C122.589 19.3854 122.57 19.1042 122.539 18.8125C122.508 18.5156 122.456 18.2214 122.383 17.9297C122.305 17.6432 122.203 17.3698 122.078 17.1094C121.953 16.8438 121.797 16.6094 121.609 16.4062C121.422 16.2083 121.201 16.0521 120.945 15.9375C120.69 15.8177 120.393 15.7578 120.055 15.7578C119.721 15.7578 119.427 15.8177 119.172 15.9375C118.917 16.0573 118.695 16.2161 118.508 16.4141C118.32 16.6172 118.164 16.8516 118.039 17.1172C117.914 17.3776 117.815 17.651 117.742 17.9375C117.664 18.2292 117.607 18.5234 117.57 18.8203C117.539 19.112 117.521 19.3906 117.516 19.6562V20.9688C117.521 21.2344 117.539 21.5156 117.57 21.8125C117.607 22.1094 117.664 22.401 117.742 22.6875C117.82 22.9792 117.922 23.2578 118.047 23.5234C118.172 23.7891 118.328 24.0208 118.516 24.2188C118.703 24.4219 118.924 24.5833 119.18 24.7031C119.435 24.8229 119.732 24.8828 120.07 24.8828C120.409 24.8828 120.706 24.8229 120.961 24.7031C121.221 24.5833 121.445 24.4219 121.633 24.2188C121.815 24.0208 121.966 23.7917 122.086 23.5312C122.211 23.2656 122.312 22.987 122.391 22.6953C122.464 22.4089 122.513 22.1172 122.539 21.8203C122.57 21.5234 122.589 21.2396 122.594 20.9688V19.6562ZM131.57 14.625H133.047V22.5391C133.036 23.0651 132.935 23.5495 132.742 23.9922C132.555 24.4349 132.297 24.8151 131.969 25.1328C131.641 25.4557 131.253 25.7083 130.805 25.8906C130.362 26.0677 129.878 26.1562 129.352 26.1562C128.82 26.1562 128.336 26.0755 127.898 25.9141C127.466 25.7526 127.091 25.5208 126.773 25.2188C126.451 24.9219 126.193 24.5625 126 24.1406C125.807 23.7135 125.688 23.237 125.641 22.7109H127.109C127.125 23.0286 127.188 23.3229 127.297 23.5938C127.411 23.8646 127.565 24.099 127.758 24.2969C127.951 24.5 128.18 24.6562 128.445 24.7656C128.716 24.875 129.018 24.9297 129.352 24.9297C129.695 24.9297 130.003 24.8672 130.273 24.7422C130.544 24.612 130.776 24.4375 130.969 24.2188C131.156 24 131.299 23.7474 131.398 23.4609C131.503 23.1693 131.56 22.862 131.57 22.5391V14.625ZM142.102 20.7422H137.352V24.7734H142.891V26H135.906V14.625H142.82V15.8594H137.352V19.5156H142.102V20.7422ZM152.82 22.5781C152.753 23.1042 152.617 23.5885 152.414 24.0312C152.211 24.4688 151.948 24.8438 151.625 25.1562C151.297 25.474 150.909 25.7214 150.461 25.8984C150.018 26.0703 149.523 26.1562 148.977 26.1562C148.508 26.1562 148.081 26.0911 147.695 25.9609C147.315 25.8255 146.977 25.6406 146.68 25.4062C146.378 25.1719 146.117 24.8958 145.898 24.5781C145.685 24.2604 145.508 23.9141 145.367 23.5391C145.221 23.1641 145.112 22.7708 145.039 22.3594C144.971 21.9479 144.935 21.5312 144.93 21.1094V19.5234C144.935 19.1016 144.971 18.6849 145.039 18.2734C145.112 17.862 145.221 17.4688 145.367 17.0938C145.508 16.7188 145.685 16.3724 145.898 16.0547C146.117 15.7318 146.378 15.4531 146.68 15.2188C146.977 14.9844 147.315 14.8021 147.695 14.6719C148.076 14.5365 148.503 14.4688 148.977 14.4688C149.544 14.4688 150.052 14.5573 150.5 14.7344C150.948 14.9062 151.333 15.151 151.656 15.4688C151.979 15.7917 152.237 16.1771 152.43 16.625C152.628 17.0729 152.758 17.5677 152.82 18.1094H151.375C151.328 17.7656 151.247 17.4453 151.133 17.1484C151.018 16.8516 150.865 16.5911 150.672 16.3672C150.479 16.1432 150.242 15.9688 149.961 15.8438C149.685 15.7135 149.357 15.6484 148.977 15.6484C148.633 15.6484 148.328 15.7057 148.062 15.8203C147.802 15.9297 147.578 16.0807 147.391 16.2734C147.198 16.4661 147.036 16.6901 146.906 16.9453C146.781 17.2005 146.68 17.4714 146.602 17.7578C146.523 18.0443 146.466 18.3385 146.43 18.6406C146.398 18.9375 146.383 19.2266 146.383 19.5078V21.1094C146.383 21.3906 146.398 21.6823 146.43 21.9844C146.466 22.2812 146.523 22.5729 146.602 22.8594C146.68 23.151 146.781 23.4245 146.906 23.6797C147.031 23.9349 147.19 24.1589 147.383 24.3516C147.576 24.5495 147.802 24.7057 148.062 24.8203C148.323 24.9297 148.628 24.9844 148.977 24.9844C149.357 24.9844 149.685 24.9245 149.961 24.8047C150.242 24.6849 150.479 24.5156 150.672 24.2969C150.865 24.0833 151.018 23.8307 151.133 23.5391C151.247 23.2422 151.328 22.9219 151.375 22.5781H152.82ZM162.734 15.8594H159.219V26H157.812V15.8594H154.297V14.625H162.734V15.8594Z" fill="white"/>
</svg>
