<svg width="52" height="52" viewBox="0 0 52 52" fill="none" xmlns="http://www.w3.org/2000/svg">
<rect x="0.5" y="0.5" width="51" height="51" rx="9.5" fill="#1F1F1F"/>
<rect x="0.5" y="0.5" width="51" height="51" rx="9.5" stroke="#333333"/>
<path d="M18.0454 19.4917L19.4917 18.0454C20.8552 16.6818 21.537 16 22.3843 16C23.2315 16 23.9133 16.6818 25.2769 18.0454L22.8664 20.4559L18.0454 25.2769L18.0454 25.2768C16.6818 23.9133 16 23.2315 16 22.3843C16 21.537 16.6818 20.8552 18.0454 19.4917L18.0454 19.4917Z" fill="#CE7D63"/>
<path d="M33.9546 32.5083L32.5083 33.9546C31.1448 35.3182 30.463 36 29.6157 36C28.7685 36 28.0867 35.3182 26.7232 33.9546L26.7231 33.9546L31.5441 29.1336L33.9546 26.7231C35.3182 28.0867 36 28.7685 36 29.6157C36 30.463 35.3182 31.1448 33.9546 32.5083Z" fill="#CE7D63"/>
<path d="M25.4001 32.1612L25.4001 32.1612L32.796 24.7653C31.7894 24.3464 30.5972 23.6582 29.4697 22.5307C28.342 21.403 27.6537 20.2106 27.2348 19.2039L19.8388 26.5999L19.8388 26.5999C19.2617 27.1771 18.9731 27.4657 18.7249 27.7838C18.4321 28.1592 18.1811 28.5653 17.9763 28.995C17.8027 29.3593 17.6737 29.7465 17.4156 30.5208L16.0544 34.6042C15.9274 34.9852 16.0266 35.4053 16.3106 35.6894C16.5947 35.9734 17.0148 36.0726 17.3958 35.9456L21.4792 34.5844C22.2535 34.3263 22.6407 34.1973 23.005 34.0237C23.4347 33.8189 23.8408 33.5679 24.2162 33.2751C24.5343 33.0269 24.823 32.7383 25.4001 32.1612Z" fill="#CE7D63"/>
<path d="M34.8482 22.7131C36.3839 21.1774 36.3839 18.6875 34.8482 17.1518C33.3125 15.6161 30.8226 15.6161 29.2869 17.1518L28.3999 18.0388C28.4121 18.0755 28.4246 18.1127 28.4377 18.1504C28.7628 19.0875 29.3763 20.316 30.5303 21.47C31.6843 22.624 32.9128 23.2375 33.85 23.5626C33.8875 23.5756 33.9245 23.5882 33.961 23.6003L34.8482 22.7131Z" fill="#CE7D63"/>
</svg>
