<svg width="220" height="56" viewBox="0 0 220 56" fill="none" xmlns="http://www.w3.org/2000/svg">
<rect x="7" y="8.5" width="40" height="40" rx="20" fill="#CE7D63"/>
<path d="M28.25 34.75L34.5 28.5L28.25 22.25M34.5 28.5H19.5" stroke="#0F0F0F" stroke-width="1.5" stroke-linecap="round" stroke-linejoin="round"/>
<path d="M49.2116 46.2775C45.4707 50.619 40.4876 53.708 34.9353 55.1275C29.3829 56.547 23.5287 56.2286 18.1631 54.2152C12.7975 52.2018 8.17895 48.5905 4.93098 43.8689C1.68302 39.1472 -0.0378835 33.5426 0.000632362 27.8118C0.0391483 22.081 1.83523 16.5001 5.14636 11.8225C8.4575 7.14493 13.1242 3.59602 18.5164 1.65496C23.9086 -0.286103 29.7665 -0.525826 35.2993 0.968156C40.832 2.46214 45.7731 5.61787 49.4554 10.0093L48.4983 10.8118C44.9803 6.61627 40.2596 3.6013 34.9737 2.17396C29.6877 0.746624 24.0911 0.975654 18.9394 2.83013C13.7878 4.68461 9.32923 8.07521 6.1658 12.5441C3.00236 17.0131 1.2864 22.3451 1.2496 27.8202C1.2128 33.2954 2.85694 38.65 5.96002 43.161C9.06311 47.672 13.4757 51.1223 18.6019 53.0458C23.7282 54.9694 29.3213 55.2736 34.6259 53.9174C39.9306 52.5613 44.6914 49.61 48.2654 45.4622L49.2116 46.2775Z" fill="#CE7D63"/>
<path d="M56.8105 30.584V30.3496H59.0176V30.5645C59.0111 31.3783 59.2715 31.9902 59.7988 32.4004C60.3327 32.8105 61.0749 33.0156 62.0254 33.0156C62.9694 33.0156 63.6921 32.8105 64.1934 32.4004C64.7012 31.9902 64.9551 31.4531 64.9551 30.7891C64.9551 30.1641 64.7142 29.6693 64.2324 29.3047C63.7507 28.9401 62.8001 28.5527 61.3809 28.1426C59.877 27.7064 58.7832 27.179 58.0996 26.5605C57.416 25.9355 57.0742 25.0599 57.0742 23.9336C57.0742 22.7812 57.5072 21.8405 58.373 21.1113C59.2389 20.3757 60.4238 20.0078 61.9277 20.0078C63.4316 20.0078 64.6296 20.3887 65.5215 21.1504C66.4199 21.9056 66.8691 22.8984 66.8691 24.1289V24.334H64.6914V24.1484C64.6914 23.4323 64.4603 22.8594 63.998 22.4297C63.5358 21.9935 62.849 21.7754 61.9375 21.7754C61.0195 21.7754 60.3457 21.9609 59.916 22.332C59.4863 22.6966 59.2715 23.1947 59.2715 23.8262C59.2715 24.4056 59.4961 24.8613 59.9453 25.1934C60.401 25.5189 61.3483 25.89 62.7871 26.3066C64.265 26.7298 65.3587 27.2734 66.0684 27.9375C66.7845 28.5951 67.1426 29.5195 67.1426 30.7109C67.1426 31.9349 66.6803 32.9212 65.7559 33.6699C64.8314 34.4121 63.5879 34.7832 62.0254 34.7832C60.4629 34.7832 59.2031 34.4154 58.2461 33.6797C57.2891 32.944 56.8105 31.9121 56.8105 30.584ZM68.0898 22.0391V20.2812H79.0664V22.0391H74.6816V34.5H72.4746V22.0391H68.0898ZM78.4023 34.5L83.666 20.2031H85.8535L91.1465 34.5H88.832L85.082 23.9043C85.0039 23.6829 84.9355 23.4714 84.877 23.2695C84.8249 23.0677 84.776 22.8626 84.7305 22.6543H84.6523C84.6068 22.8626 84.5547 23.0677 84.4961 23.2695C84.444 23.4714 84.3789 23.6829 84.3008 23.9043L80.541 34.5H78.4023ZM80.9023 30.9648L81.4785 29.2461H87.9824L88.5586 30.9648H80.9023ZM92.6016 34.5V20.2812H97.3477C98.8841 20.2812 100.069 20.6654 100.902 21.4336C101.742 22.2018 102.162 23.2402 102.162 24.5488C102.162 25.8574 101.742 26.9089 100.902 27.7031C100.062 28.4909 98.8776 28.8848 97.3477 28.8848H94.7988V34.5H92.6016ZM94.7988 27.1855H97.2793C98.2819 27.1855 98.9785 26.9382 99.3691 26.4434C99.7663 25.9421 99.9648 25.3171 99.9648 24.5684C99.9648 23.8132 99.7663 23.1979 99.3691 22.7227C98.9785 22.2409 98.2819 22 97.2793 22H94.7988V27.1855ZM100.424 34.5L97.0352 27.957L99.252 27.7031L102.875 34.5H100.424ZM102.699 22.0391V20.2812H113.676V22.0391H109.291V34.5H107.084V22.0391H102.699ZM118.168 34.5L123.432 20.2031H125.619L130.912 34.5H128.598L124.848 23.9043C124.77 23.6829 124.701 23.4714 124.643 23.2695C124.59 23.0677 124.542 22.8626 124.496 22.6543H124.418C124.372 22.8626 124.32 23.0677 124.262 23.2695C124.21 23.4714 124.145 23.6829 124.066 23.9043L120.307 34.5H118.168ZM120.668 30.9648L121.244 29.2461H127.748L128.324 30.9648H120.668ZM137.113 34.5V20.2812H141.996C143.559 20.2812 144.757 20.6784 145.59 21.4727C146.423 22.2604 146.84 23.3314 146.84 24.6855C146.84 26.0332 146.423 27.1107 145.59 27.918C144.757 28.7188 143.555 29.1191 141.986 29.1191H139.311V34.5H137.113ZM139.311 27.3906H141.869C142.904 27.3906 143.624 27.1367 144.027 26.6289C144.438 26.1146 144.643 25.4668 144.643 24.6855C144.643 23.9108 144.438 23.2728 144.027 22.7715C143.624 22.2702 142.904 22.0195 141.869 22.0195H139.311V27.3906ZM148.852 34.5V20.2812H153.598C155.134 20.2812 156.319 20.6654 157.152 21.4336C157.992 22.2018 158.412 23.2402 158.412 24.5488C158.412 25.8574 157.992 26.9089 157.152 27.7031C156.312 28.4909 155.128 28.8848 153.598 28.8848H151.049V34.5H148.852ZM151.049 27.1855H153.529C154.532 27.1855 155.229 26.9382 155.619 26.4434C156.016 25.9421 156.215 25.3171 156.215 24.5684C156.215 23.8132 156.016 23.1979 155.619 22.7227C155.229 22.2409 154.532 22 153.529 22H151.049V27.1855ZM156.674 34.5L153.285 27.957L155.502 27.7031L159.125 34.5H156.674ZM160.443 27.8301V26.9512C160.443 24.7051 161.003 22.9863 162.123 21.7949C163.243 20.597 164.685 19.998 166.449 19.998C168.214 19.998 169.656 20.597 170.775 21.7949C171.902 22.9863 172.465 24.7051 172.465 26.9512V27.8301C172.465 30.0762 171.902 31.7982 170.775 32.9961C169.656 34.1875 168.214 34.7832 166.449 34.7832C164.685 34.7832 163.243 34.1875 162.123 32.9961C161.003 31.7982 160.443 30.0762 160.443 27.8301ZM162.689 27.957C162.689 29.5911 163.031 30.8411 163.715 31.707C164.398 32.5664 165.31 32.9961 166.449 32.9961C167.589 32.9961 168.503 32.5664 169.193 31.707C169.883 30.8411 170.229 29.5911 170.229 27.957V26.834C170.229 25.1934 169.883 23.9434 169.193 23.084C168.503 22.2181 167.589 21.7852 166.449 21.7852C165.31 21.7852 164.398 22.2181 163.715 23.084C163.031 23.9434 162.689 25.1934 162.689 26.834V27.957ZM173.744 30.4375V30.2715H175.912V30.4473C175.912 31.3197 176.114 31.9642 176.518 32.3809C176.928 32.7975 177.507 33.0059 178.256 33.0059C178.998 33.0059 179.574 32.778 179.984 32.3223C180.401 31.8665 180.609 31.1634 180.609 30.2129V20.2812H182.807V30.1348C182.807 31.5866 182.396 32.7259 181.576 33.5527C180.756 34.373 179.656 34.7832 178.275 34.7832C176.902 34.7832 175.801 34.4089 174.975 33.6602C174.154 32.9049 173.744 31.8307 173.744 30.4375ZM185.766 34.5V20.2812H194.73V22.0391H187.953V26.3066H193.832V28.0449H187.953V32.752H194.828V34.5H185.766ZM196.439 27.8301V26.9512C196.439 24.7051 196.996 22.9863 198.109 21.7949C199.229 20.6035 200.652 20.0078 202.377 20.0078C204.076 20.0078 205.408 20.4635 206.371 21.375C207.341 22.2865 207.826 23.429 207.826 24.8027V24.998H205.619V24.7832C205.619 23.8783 205.349 23.1523 204.809 22.6055C204.275 22.0586 203.464 21.7852 202.377 21.7852C201.283 21.7852 200.395 22.1921 199.711 23.0059C199.027 23.8197 198.686 25.0892 198.686 26.8145V27.9668C198.686 29.5749 199.024 30.8151 199.701 31.6875C200.385 32.5599 201.283 32.9961 202.396 32.9961C203.425 32.9961 204.2 32.7194 204.721 32.166C205.248 31.6061 205.548 30.8802 205.619 29.9883V29.793H207.826L207.816 29.998C207.719 31.3522 207.214 32.4883 206.303 33.4062C205.391 34.3177 204.083 34.7734 202.377 34.7734C200.632 34.7734 199.206 34.1745 198.1 32.9766C196.993 31.7786 196.439 30.0632 196.439 27.8301ZM208.812 22.0391V20.2812H219.789V22.0391H215.404V34.5H213.197V22.0391H208.812Z" fill="#CE7D63"/>
</svg>
