<svg width="34" height="34" viewBox="0 0 34 34" fill="none" xmlns="http://www.w3.org/2000/svg">
<path d="M12.277 16.9996C12.277 14.3917 14.3918 12.277 17.0013 12.277C19.6108 12.277 21.7267 14.3917 21.7267 16.9996C21.7267 19.6075 19.6108 21.7222 17.0013 21.7222C14.3918 21.7222 12.277 19.6075 12.277 16.9996ZM9.72254 16.9996C9.72254 21.0173 12.9812 24.274 17.0013 24.274C21.0214 24.274 24.2801 21.0173 24.2801 16.9996C24.2801 12.982 21.0214 9.72524 17.0013 9.72524C12.9812 9.72524 9.72254 12.982 9.72254 16.9996ZM22.8672 9.43681C22.8671 9.77304 22.9667 10.1018 23.1535 10.3814C23.3403 10.661 23.6059 10.879 23.9166 11.0078C24.2274 11.1366 24.5694 11.1704 24.8994 11.105C25.2294 11.0395 25.5325 10.8777 25.7705 10.64C26.0085 10.4024 26.1706 10.0995 26.2364 9.76981C26.3022 9.44007 26.2686 9.09824 26.14 8.78756C26.0114 8.47687 25.7935 8.21128 25.5138 8.02437C25.2342 7.83746 24.9053 7.73763 24.5689 7.73749H24.5682C24.1173 7.7377 23.6848 7.91678 23.3659 8.2354C23.0469 8.55402 22.8676 8.98613 22.8672 9.43681ZM11.2745 28.5309C9.89253 28.468 9.14136 28.238 8.64217 28.0436C7.98036 27.7861 7.50816 27.4794 7.01169 26.9839C6.51522 26.4884 6.2079 26.017 5.95139 25.3556C5.75679 24.8569 5.52659 24.106 5.46377 22.7248C5.39505 21.2315 5.38132 20.7829 5.38132 16.9997C5.38132 13.2166 5.39618 12.7693 5.46377 11.2747C5.5267 9.89354 5.75861 9.14407 5.95139 8.64393C6.20904 7.98252 6.5159 7.5106 7.01169 7.01443C7.50748 6.51826 7.97923 6.21113 8.64217 5.95477C9.14113 5.76029 9.89253 5.53022 11.2745 5.46743C12.7687 5.39875 13.2176 5.38504 17.0013 5.38504C20.785 5.38504 21.2343 5.39989 22.7298 5.46743C24.1118 5.53033 24.8617 5.7621 25.3621 5.95477C26.0239 6.21113 26.4961 6.51894 26.9926 7.01443C27.4891 7.50992 27.7953 7.98252 28.0529 8.64393C28.2475 9.1426 28.4777 9.89354 28.5405 11.2747C28.6093 12.7693 28.623 13.2166 28.623 16.9997C28.623 20.7829 28.6093 21.2302 28.5405 22.7248C28.4776 24.106 28.2463 24.8567 28.0529 25.3556C27.7953 26.017 27.4884 26.4889 26.9926 26.9839C26.4968 27.479 26.0239 27.7861 25.3621 28.0436C24.8632 28.2381 24.1118 28.4681 22.7298 28.5309C21.2356 28.5996 20.7867 28.6133 17.0013 28.6133C13.2159 28.6133 12.7683 28.5996 11.2745 28.5309ZM11.1572 2.9188C9.64815 2.98748 8.61699 3.22661 7.71648 3.57681C6.78387 3.93846 5.99437 4.42364 5.20544 5.21085C4.41651 5.99806 3.93229 6.78833 3.57042 7.72038C3.22001 8.62093 2.98074 9.6509 2.91202 11.159C2.84216 12.6695 2.82617 13.1524 2.82617 16.9996C2.82617 20.8468 2.84216 21.3298 2.91202 22.8403C2.98074 24.3485 3.22001 25.3783 3.57042 26.2789C3.93229 27.2104 4.41662 28.0016 5.20544 28.7884C5.99426 29.5753 6.78387 30.0598 7.71648 30.4225C8.6187 30.7727 9.64815 31.0118 11.1572 31.0805C12.6694 31.1492 13.1518 31.1663 17.0013 31.1663C20.8508 31.1663 21.334 31.1503 22.8454 31.0805C24.3546 31.0118 25.385 30.7727 26.2861 30.4225C27.2182 30.0598 28.0082 29.5756 28.7972 28.7884C29.5861 28.0012 30.0693 27.2104 30.4322 26.2789C30.7826 25.3783 31.023 24.3484 31.0906 22.8403C31.1593 21.3286 31.1753 20.8468 31.1753 16.9996C31.1753 13.1524 31.1593 12.6695 31.0906 11.159C31.0219 9.65078 30.7826 8.62036 30.4322 7.72038C30.0693 6.7889 29.5848 5.99931 28.7972 5.21085C28.0095 4.42239 27.2182 3.93846 26.2873 3.57681C25.385 3.22661 24.3544 2.98635 22.8466 2.9188C21.3351 2.85012 20.8519 2.83301 17.0024 2.83301C13.1529 2.83301 12.6694 2.84899 11.1572 2.9188Z" fill="#CE7D63"/>
<path d="M12.277 16.9996C12.277 14.3917 14.3918 12.277 17.0013 12.277C19.6108 12.277 21.7267 14.3917 21.7267 16.9996C21.7267 19.6075 19.6108 21.7222 17.0013 21.7222C14.3918 21.7222 12.277 19.6075 12.277 16.9996ZM9.72254 16.9996C9.72254 21.0173 12.9812 24.274 17.0013 24.274C21.0214 24.274 24.2801 21.0173 24.2801 16.9996C24.2801 12.982 21.0214 9.72524 17.0013 9.72524C12.9812 9.72524 9.72254 12.982 9.72254 16.9996ZM22.8672 9.43681C22.8671 9.77304 22.9667 10.1018 23.1535 10.3814C23.3403 10.661 23.6059 10.879 23.9166 11.0078C24.2274 11.1366 24.5694 11.1704 24.8994 11.105C25.2294 11.0395 25.5325 10.8777 25.7705 10.64C26.0085 10.4024 26.1706 10.0995 26.2364 9.76981C26.3022 9.44007 26.2686 9.09824 26.14 8.78756C26.0114 8.47687 25.7935 8.21128 25.5138 8.02437C25.2342 7.83746 24.9053 7.73763 24.5689 7.73749H24.5682C24.1173 7.7377 23.6848 7.91678 23.3659 8.2354C23.0469 8.55402 22.8676 8.98613 22.8672 9.43681ZM11.2745 28.5309C9.89253 28.468 9.14136 28.238 8.64217 28.0436C7.98036 27.7861 7.50816 27.4794 7.01169 26.9839C6.51522 26.4884 6.2079 26.017 5.95139 25.3556C5.75679 24.8569 5.52659 24.106 5.46377 22.7248C5.39505 21.2315 5.38132 20.7829 5.38132 16.9997C5.38132 13.2166 5.39618 12.7693 5.46377 11.2747C5.5267 9.89354 5.75861 9.14407 5.95139 8.64393C6.20904 7.98252 6.5159 7.5106 7.01169 7.01443C7.50748 6.51826 7.97923 6.21113 8.64217 5.95477C9.14113 5.76029 9.89253 5.53022 11.2745 5.46743C12.7687 5.39875 13.2176 5.38504 17.0013 5.38504C20.785 5.38504 21.2343 5.39989 22.7298 5.46743C24.1118 5.53033 24.8617 5.7621 25.3621 5.95477C26.0239 6.21113 26.4961 6.51894 26.9926 7.01443C27.4891 7.50992 27.7953 7.98252 28.0529 8.64393C28.2475 9.1426 28.4777 9.89354 28.5405 11.2747C28.6093 12.7693 28.623 13.2166 28.623 16.9997C28.623 20.7829 28.6093 21.2302 28.5405 22.7248C28.4776 24.106 28.2463 24.8567 28.0529 25.3556C27.7953 26.017 27.4884 26.4889 26.9926 26.9839C26.4968 27.479 26.0239 27.7861 25.3621 28.0436C24.8632 28.2381 24.1118 28.4681 22.7298 28.5309C21.2356 28.5996 20.7867 28.6133 17.0013 28.6133C13.2159 28.6133 12.7683 28.5996 11.2745 28.5309ZM11.1572 2.9188C9.64815 2.98748 8.61699 3.22661 7.71648 3.57681C6.78387 3.93846 5.99437 4.42364 5.20544 5.21085C4.41651 5.99806 3.93229 6.78833 3.57042 7.72038C3.22001 8.62093 2.98074 9.6509 2.91202 11.159C2.84216 12.6695 2.82617 13.1524 2.82617 16.9996C2.82617 20.8468 2.84216 21.3298 2.91202 22.8403C2.98074 24.3485 3.22001 25.3783 3.57042 26.2789C3.93229 27.2104 4.41662 28.0016 5.20544 28.7884C5.99426 29.5753 6.78387 30.0598 7.71648 30.4225C8.6187 30.7727 9.64815 31.0118 11.1572 31.0805C12.6694 31.1492 13.1518 31.1663 17.0013 31.1663C20.8508 31.1663 21.334 31.1503 22.8454 31.0805C24.3546 31.0118 25.385 30.7727 26.2861 30.4225C27.2182 30.0598 28.0082 29.5756 28.7972 28.7884C29.5861 28.0012 30.0693 27.2104 30.4322 26.2789C30.7826 25.3783 31.023 24.3484 31.0906 22.8403C31.1593 21.3286 31.1753 20.8468 31.1753 16.9996C31.1753 13.1524 31.1593 12.6695 31.0906 11.159C31.0219 9.65078 30.7826 8.62036 30.4322 7.72038C30.0693 6.7889 29.5848 5.99931 28.7972 5.21085C28.0095 4.42239 27.2182 3.93846 26.2873 3.57681C25.385 3.22661 24.3544 2.98635 22.8466 2.9188C21.3351 2.85012 20.8519 2.83301 17.0024 2.83301C13.1529 2.83301 12.6694 2.84899 11.1572 2.9188Z" fill="#CE7D63"/>
</svg>
