<svg width="26" height="17" viewBox="0 0 26 17" fill="none" xmlns="http://www.w3.org/2000/svg">
<path d="M10.414 7.47703C10.414 7.47703 12.855 7.29156 12.855 4.37074C12.855 1.45234 11.1994 0.0137091 8.66891 0.0137091L0 0V16.1282H8.87051C8.87051 16.1282 13.3058 16.2685 13.3058 11.2897C13.3058 11.2897 13.6316 7.47703 10.414 7.47703ZM3.22564 2.41923H7.66089C7.66089 2.41923 9.17856 2.44423 9.17856 4.41187C9.17856 6.45128 7.66089 6.45128 7.66089 6.45128H3.22564V2.41923ZM8.0641 13.709H3.22564V8.87051H8.0641C8.0641 8.87051 10.4833 8.89551 10.4833 11.2897C10.4833 13.684 8.41247 13.709 8.0641 13.709Z" fill="#D48E77"/>
<path d="M20.1605 4.03223C14.1019 4.03223 14.1124 10.0803 14.1124 10.0803C14.1124 10.0803 13.7092 16.1284 20.1605 16.1284C20.1605 16.1284 25.8053 16.1284 25.8053 11.2899H22.5797C22.5797 11.2899 22.5797 13.7091 20.1605 13.7091C20.1605 13.7091 17.7412 13.7091 17.7412 10.4835C17.7412 10.4835 24.1925 10.4835 25.8053 10.4835C25.8053 8.87069 25.8053 4.03223 20.1605 4.03223ZM17.7412 8.87069C17.7412 8.87069 17.688 6.45146 20.1605 6.45146C22.6321 6.45146 22.5797 8.87069 22.5797 8.87069H17.7412Z" fill="#D48E77"/>
<path d="M23.3868 1.61328H16.9355V3.2261H23.3868V1.61328Z" fill="#D48E77"/>
</svg>
