<svg width="26" height="26" viewBox="0 0 26 26" fill="none" xmlns="http://www.w3.org/2000/svg">
<path d="M12.8484 25.6667C5.76171 25.6667 0 19.915 0 12.8384C0 5.75167 5.76171 0 12.8484 0C19.9351 0 25.6968 5.75167 25.6968 12.8283C25.6968 19.905 19.9351 25.6667 12.8484 25.6667ZM23.6792 14.5849C23.3078 14.4645 20.2864 13.5711 16.8435 14.1132C18.2789 18.048 18.8611 21.2601 18.9715 21.9226C21.4408 20.2663 23.1974 17.6364 23.6792 14.5849ZM17.1345 22.9364C16.9739 21.9728 16.3315 18.6201 14.7957 14.6251C14.7757 14.6351 14.7455 14.6452 14.7255 14.6452C8.53214 16.8033 6.31379 21.0894 6.11303 21.491C7.97002 22.9364 10.3088 23.7997 12.8484 23.7997C14.3641 23.8097 15.8196 23.4985 17.1345 22.9364ZM4.6977 20.176C4.94864 19.7544 7.95999 14.7757 13.6213 12.9387C13.7618 12.8886 13.9124 12.8484 14.0529 12.8083C13.7819 12.1859 13.4808 11.5636 13.1596 10.9513C7.67893 12.5874 2.35889 12.5172 1.87707 12.5071C1.87707 12.6175 1.86703 12.7279 1.86703 12.8384C1.87707 15.659 2.94108 18.2287 4.6977 20.176ZM2.10794 10.5999C2.59979 10.61 7.11681 10.63 12.2562 9.2649C10.4393 6.03273 8.47192 3.32252 8.19086 2.93104C5.10925 4.37649 2.82063 7.20715 2.10794 10.5999ZM10.2787 2.18824C10.5799 2.58976 12.5774 5.29997 14.3741 8.60241C18.2789 7.13689 19.9251 4.92857 20.1258 4.64751C18.1885 2.93104 15.6389 1.88711 12.8484 1.88711C11.9651 1.88711 11.1018 1.99752 10.2787 2.18824ZM21.3404 5.91227C21.1095 6.22344 19.2726 8.58233 15.2173 10.2386C15.4683 10.7605 15.7192 11.2925 15.9501 11.8245C16.0304 12.0153 16.1107 12.206 16.191 12.3867C19.8448 11.9249 23.4684 12.6677 23.8298 12.738C23.7997 10.1583 22.8762 7.77931 21.3404 5.91227Z" fill="#CE7D63"/>
</svg>
